<svg xmlns="http://www.w3.org/2000/svg" width="61.054" height="77.655" viewBox="0 0 61.054 77.655">
  <g id="Group_1387" data-name="Group 1387" transform="translate(-1086.16 -1588.736)">
    <g id="idea" transform="translate(1086.159 1588.736)">
      <g id="_x31_3_idea_2_" transform="translate(0)">
        <path id="Path_22571" data-name="Path 22571" d="M247.736,7.436a1.146,1.146,0,0,0,1.146-1.146V1.146a1.146,1.146,0,0,0-2.292,0V6.29A1.146,1.146,0,0,0,247.736,7.436Z" transform="translate(-217.209)" fill="#6E441E"/>
        <path id="Path_22572" data-name="Path 22572" d="M362.714,56.651l-3.637,3.637a1.146,1.146,0,0,0,1.621,1.621l3.637-3.637a1.146,1.146,0,0,0-1.621-1.621Z" transform="translate(-312.223 -47.709)" fill="#6E441E"/>
        <path id="Path_22573" data-name="Path 22573" d="M114.607,304.757l-3.637,3.637a1.146,1.146,0,1,0,1.621,1.621l3.637-3.637a1.146,1.146,0,1,0-1.621-1.621Z" transform="translate(-102.029 -257.903)" fill="#6E441E"/>
        <path id="Path_22574" data-name="Path 22574" d="M114.607,61.908a1.146,1.146,0,1,0,1.621-1.621l-3.637-3.637a1.146,1.146,0,0,0-1.621,1.621Z" transform="translate(-102.029 -47.709)" fill="#6E441E"/>
        <path id="Path_22575" data-name="Path 22575" d="M360.7,304.757a1.146,1.146,0,1,0-1.621,1.621l3.637,3.637a1.146,1.146,0,1,0,1.621-1.621Z" transform="translate(-312.223 -257.903)" fill="#6E441E"/>
        <path id="Path_22576" data-name="Path 22576" d="M60.61,192.269H55.466a1.146,1.146,0,1,0,0,2.292H60.61a1.146,1.146,0,0,0,0-2.292Z" transform="translate(-54.32 -162.888)" fill="#6E441E"/>
        <path id="Path_22577" data-name="Path 22577" d="M411.487,192.269h-5.144a1.146,1.146,0,1,0,0,2.292h5.144a1.146,1.146,0,1,0,0-2.292Z" transform="translate(-351.579 -162.888)" fill="#6E441E"/>
        <path id="Path_22578" data-name="Path 22578" d="M147.672,236.835a1.146,1.146,0,0,0,0-2.292h-.414v-3.874l.022-.13a16.247,16.247,0,0,1,1.249-4.07,1.146,1.146,0,1,0-2.085-.952,18.579,18.579,0,0,0-1.285,3.911H131.722a18.571,18.571,0,0,0-5.732-10.073,18.632,18.632,0,0,1-6.1-11.867,1.146,1.146,0,1,0-2.279.248,20.92,20.92,0,0,0,6.852,13.325,16.3,16.3,0,0,1,5.132,9.436l.029.171v3.874h-.376a1.146,1.146,0,1,0,0,2.292h.376v2.823h-.376a1.146,1.146,0,1,0,0,2.292h.376v1.965a3.152,3.152,0,0,0,2.068,2.954,6.728,6.728,0,0,0,3.743,5.582,1.146,1.146,0,0,0,1.02-2.053,4.45,4.45,0,0,1-2.436-3.334h8.847a4.449,4.449,0,0,1-2.435,3.334,1.146,1.146,0,1,0,1.02,2.053,6.728,6.728,0,0,0,3.743-5.582,3.152,3.152,0,0,0,2.068-2.954V241.95h.414a1.146,1.146,0,0,0,0-2.292h-.414v-2.823Zm-15.759-5.115h13.053v2.823H131.912Zm13.053,12.2a.859.859,0,0,1-.858.858H132.77a.859.859,0,0,1-.858-.858V241.95h13.053Zm0-4.257H131.913v-2.823h13.053Z" transform="translate(-107.931 -174.916)" fill="#6E441E"/>
        <path id="Path_22579" data-name="Path 22579" d="M221.5,173.057a5.878,5.878,0,1,0-5.878-5.878A5.885,5.885,0,0,0,221.5,173.057Zm0-9.465a3.586,3.586,0,1,1-3.586,3.586A3.59,3.59,0,0,1,221.5,163.592Z" transform="translate(-190.973 -136.652)" fill="#6E441E"/>
        <path id="Path_22580" data-name="Path 22580" d="M160.851,115.586a1.912,1.912,0,0,0-1.91,1.91v3.328a1.912,1.912,0,0,0,1.91,1.91h2.288a10.884,10.884,0,0,0,.5,1.211l-1.618,1.618a1.912,1.912,0,0,0,0,2.7l2.353,2.353a1.912,1.912,0,0,0,2.7,0L168.7,129a10.881,10.881,0,0,0,1.211.5v2.288a1.912,1.912,0,0,0,1.91,1.91h3.328a1.912,1.912,0,0,0,1.91-1.91V129.5a10.884,10.884,0,0,0,1.211-.5l1.618,1.618a1.91,1.91,0,0,0,2.7,0l2.353-2.353a1.913,1.913,0,0,0,0-2.7l-1.618-1.618a10.832,10.832,0,0,0,.5-1.211h2.288a1.912,1.912,0,0,0,1.91-1.91V117.5a1.912,1.912,0,0,0-1.91-1.91h-2.288a10.871,10.871,0,0,0-.5-1.211l1.618-1.618a1.913,1.913,0,0,0,0-2.7l-2.353-2.353a1.91,1.91,0,0,0-2.7,0l-1.618,1.618a10.855,10.855,0,0,0-1.211-.5v-2.288a1.912,1.912,0,0,0-1.91-1.91h-3.328a1.912,1.912,0,0,0-1.91,1.91v2.288a10.852,10.852,0,0,0-1.211.5l-1.618-1.618a1.912,1.912,0,0,0-2.7,0l-2.353,2.353a1.912,1.912,0,0,0,0,2.7l1.618,1.618a10.9,10.9,0,0,0-.5,1.211h-2.287Zm5.013-2.229-1.951-1.951,1.813-1.813,1.951,1.951a1.146,1.146,0,0,0,1.4.175,8.59,8.59,0,0,1,2.263-.939,1.146,1.146,0,0,0,.863-1.111v-2.757h2.564v2.757a1.146,1.146,0,0,0,.863,1.111,8.587,8.587,0,0,1,2.263.939,1.146,1.146,0,0,0,1.4-.175l1.951-1.951,1.813,1.813-1.951,1.951a1.146,1.146,0,0,0-.175,1.4,8.587,8.587,0,0,1,.938,2.263,1.146,1.146,0,0,0,1.111.863h2.757v2.564h-2.757a1.146,1.146,0,0,0-1.111.863,8.585,8.585,0,0,1-.938,2.262,1.146,1.146,0,0,0,.175,1.4l1.951,1.951-1.813,1.813-1.951-1.951a1.146,1.146,0,0,0-1.4-.175,8.589,8.589,0,0,1-2.263.939,1.146,1.146,0,0,0-.863,1.11v2.757H172.2v-2.757a1.146,1.146,0,0,0-.863-1.11,8.6,8.6,0,0,1-2.263-.939,1.146,1.146,0,0,0-1.4.175l-1.951,1.951-1.813-1.813,1.951-1.951a1.146,1.146,0,0,0,.175-1.4,8.592,8.592,0,0,1-.939-2.263,1.146,1.146,0,0,0-1.11-.863h-2.757v-2.564h2.757a1.146,1.146,0,0,0,1.11-.863,8.592,8.592,0,0,1,.939-2.263A1.146,1.146,0,0,0,165.865,113.357Z" transform="translate(-142.954 -88.634)" fill="#6E441E"/>
        <path id="Path_22581" data-name="Path 22581" d="M153.612,68.744a21.025,21.025,0,0,0-35.723,12.1,1.146,1.146,0,1,0,2.273.293,18.681,18.681,0,1,1,31.1,16.174,19.726,19.726,0,0,0-1.692,1.741,1.146,1.146,0,1,0,1.739,1.493,17.44,17.44,0,0,1,1.495-1.538,20.973,20.973,0,0,0,.811-30.263Z" transform="translate(-108.167 -52.961)" fill="#6E441E"/>
      </g>
    </g>
  </g>
</svg>
