<svg xmlns="http://www.w3.org/2000/svg" width="24.46" height="20.611" viewBox="0 0 24.46 20.611">
  <g id="Group_6" data-name="Group 6" transform="translate(-1378.445 -133)">
    <g id="shopping-cart_3_" data-name="shopping-cart (3)" transform="translate(1378.445 133)">
      <path id="Path_43" data-name="Path 43" d="M24.1,47.2a1.69,1.69,0,0,0-1.33-.638H18.057L15.5,40.713a.717.717,0,1,0-1.313.574l2.3,5.275H7.967l2.3-5.275a.717.717,0,1,0-1.313-.574L6.4,46.562H1.693a1.69,1.69,0,0,0-1.33.638,1.65,1.65,0,0,0-.321,1.4L2.558,59.591a1.679,1.679,0,0,0,1.651,1.3H20.252a1.679,1.679,0,0,0,1.651-1.3L24.418,48.6A1.65,1.65,0,0,0,24.1,47.2ZM20.252,59.46H4.208a.256.256,0,0,1-.253-.19L1.439,48.283a.219.219,0,0,1,.045-.19.26.26,0,0,1,.209-.1H5.777l-.188.43A.717.717,0,1,0,6.9,49l.438-1h9.777l.438,1a.717.717,0,0,0,1.313-.574l-.188-.43h4.085a.26.26,0,0,1,.209.1.219.219,0,0,1,.045.19L20.505,59.271a.256.256,0,0,1-.254.19Z" transform="translate(0 -40.283)" fill="#6e441e"/>
      <path id="Path_44" data-name="Path 44" d="M151.717,266.717a.717.717,0,0,0-.717.717v5.255a.717.717,0,1,0,1.433,0v-5.255A.717.717,0,0,0,151.717,266.717Z" transform="translate(-143.786 -255.9)" fill="#6e441e"/>
      <path id="Path_45" data-name="Path 45" d="M241.717,266.717a.717.717,0,0,0-.717.717v5.255a.717.717,0,1,0,1.433,0v-5.255A.717.717,0,0,0,241.717,266.717Z" transform="translate(-229.487 -255.9)" fill="#6e441e"/>
      <path id="Path_46" data-name="Path 46" d="M331.717,266.717a.717.717,0,0,0-.717.717v5.255a.717.717,0,1,0,1.433,0v-5.255A.717.717,0,0,0,331.717,266.717Z" transform="translate(-315.187 -255.9)" fill="#6e441e"/>
    </g>
  </g>
</svg>
