<svg xmlns="http://www.w3.org/2000/svg" width="14.42" height="13.699" viewBox="0 0 14.42 13.699">
  <g id="comm1" transform="translate(-0.001)">
    <path id="Path_22600" data-name="Path 22600" d="M7.21,1.5C3.234,1.5,0,4.411,0,7.989A6,6,0,0,0,1.146,11.5,5.6,5.6,0,0,1,.07,14.789a.24.24,0,0,0,.17.41l.033,0a12.84,12.84,0,0,0,3.994-1.283,7.823,7.823,0,0,0,2.942.565c3.976,0,7.21-2.911,7.21-6.489S11.186,1.5,7.21,1.5ZM3.845,8.95a.961.961,0,1,1,.961-.961A.962.962,0,0,1,3.845,8.95Zm3.365,0a.961.961,0,1,1,.961-.961A.962.962,0,0,1,7.21,8.95Zm3.365,0a.961.961,0,1,1,.961-.961A.962.962,0,0,1,10.575,8.95Z" transform="translate(0.001 -1.5)" fill="#6e441e"/>
  </g>
</svg>
