<svg xmlns="http://www.w3.org/2000/svg" width="65.708" height="48.765" viewBox="0 0 65.708 48.765">
  <g id="Group_1389" data-name="Group 1389" transform="translate(-1433 -1839.517)">
    <g id="delivery1" transform="translate(1433 1839.517)">
      <g id="Group_1359" data-name="Group 1359" transform="translate(12.833 7.7)">
        <g id="Group_1358" data-name="Group 1358">
          <path id="Path_22565" data-name="Path 22565" d="M101.278,126.006a1.283,1.283,0,1,0,1.283,1.283A1.284,1.284,0,0,0,101.278,126.006Z" transform="translate(-99.995 -126.006)" fill="#c18f61"/>
        </g>
      </g>
      <g id="Group_1361" data-name="Group 1361" transform="translate(0 0)">
        <g id="Group_1360" data-name="Group 1360">
          <path id="Path_22566" data-name="Path 22566" d="M60.436,84.684,58.579,80.97a3.829,3.829,0,0,0-3.444-2.129H44.4V69.858a3.854,3.854,0,0,0-3.85-3.85H3.85A3.854,3.854,0,0,0,0,69.858v33.366a3.854,3.854,0,0,0,3.85,3.85H7.7a7.669,7.669,0,0,0,1.967,5.133H1.283a1.283,1.283,0,1,0,0,2.567H64.422a1.283,1.283,0,1,0,0-2.567h-3.25a7.668,7.668,0,0,0,1.967-5.133c0-.073,0-.146-.006-.219a3.856,3.856,0,0,0,2.572-3.631V96.129C65.7,94.632,66,96.03,60.436,84.684ZM58.5,86.541l3.85,7.7H49.535v-7.7H58.5ZM2.567,96.807H5.133v2.567H2.567Zm12.833,15.4a5.139,5.139,0,0,1-5.133-5.133,5.066,5.066,0,0,1,.1-1.028,5.133,5.133,0,0,1,10.058,0v.005a5.046,5.046,0,0,1,.1,1.023A5.139,5.139,0,0,1,15.4,112.207Zm0-12.833a7.726,7.726,0,0,0-7.26,5.133H3.85a1.285,1.285,0,0,1-1.283-1.283V101.94h3.85A1.283,1.283,0,0,0,7.7,100.657V95.524A1.283,1.283,0,0,0,6.416,94.24H2.567V69.858A1.285,1.285,0,0,1,3.85,68.575h36.7a1.285,1.285,0,0,1,1.283,1.283v34.649H22.659A7.727,7.727,0,0,0,15.4,99.374Zm5.733,12.833a7.668,7.668,0,0,0,1.967-5.133H47.739a7.668,7.668,0,0,0,1.967,5.133Zm34.306,0a5.139,5.139,0,0,1-5.133-5.133,5.066,5.066,0,0,1,.1-1.028,5.133,5.133,0,0,1,10.058,0v.005a5.046,5.046,0,0,1,.1,1.023A5.139,5.139,0,0,1,55.438,112.207Zm7.7-8.983a1.282,1.282,0,0,1-.532,1.038,7.7,7.7,0,0,0-14.428.245H44.4v-23.1H55.135a1.277,1.277,0,0,1,1.148.71l.928,1.857h-8.96a1.283,1.283,0,0,0-1.283,1.283V95.524a1.283,1.283,0,0,0,1.283,1.283H63.138Z" transform="translate(0 -66.008)" fill="#c18f61"/>
        </g>
      </g>
      <g id="Group_1363" data-name="Group 1363" transform="translate(17.966 7.7)">
        <g id="Group_1362" data-name="Group 1362">
          <path id="Path_22567" data-name="Path 22567" d="M157.447,126.006h-16.17a1.283,1.283,0,1,0,0,2.567h16.17a1.283,1.283,0,0,0,0-2.567Z" transform="translate(-139.994 -126.006)" fill="#c18f61"/>
        </g>
      </g>
      <g id="Group_1365" data-name="Group 1365" transform="translate(23.099 12.833)">
        <g id="Group_1364" data-name="Group 1364">
          <path id="Path_22568" data-name="Path 22568" d="M192.312,166H181.275a1.283,1.283,0,1,0,0,2.567h11.036a1.283,1.283,0,0,0,0-2.567Z" transform="translate(-179.992 -166.004)" fill="#c18f61"/>
        </g>
      </g>
      <g id="Group_1367" data-name="Group 1367" transform="translate(52.872 38.499)">
        <g id="Group_1366" data-name="Group 1366">
          <path id="Path_22569" data-name="Path 22569" d="M414.55,366a2.567,2.567,0,1,0,2.567,2.567A2.57,2.57,0,0,0,414.55,366Z" transform="translate(-411.983 -365.996)" fill="#c18f61"/>
        </g>
      </g>
      <g id="Group_1369" data-name="Group 1369" transform="translate(12.833 38.499)">
        <g id="Group_1368" data-name="Group 1368">
          <path id="Path_22570" data-name="Path 22570" d="M102.563,366a2.567,2.567,0,1,0,2.567,2.567A2.569,2.569,0,0,0,102.563,366Z" transform="translate(-99.996 -365.996)" fill="#c18f61"/>
        </g>
      </g>
    </g>
  </g>
</svg>
