<svg xmlns="http://www.w3.org/2000/svg" width="45.359" height="28.692" viewBox="0 0 45.359 28.692">
  <g id="delivery" transform="translate(0 0)">
    <g id="Group_12" data-name="Group 12" transform="translate(0 0)">
      <g id="Group_11" data-name="Group 11">
        <path id="Path_52" data-name="Path 52" d="M42.183,106.226l-1.175-4.7a.71.71,0,0,0,.562-.694v-.758a2.986,2.986,0,0,0-2.983-2.983h-5.35V95.53a1.469,1.469,0,0,0-1.468-1.468H4.5A1.469,1.469,0,0,0,3.03,95.53v12.879a.71.71,0,0,0,1.42,0V95.53a.047.047,0,0,1,.047-.047H31.77a.047.047,0,0,1,.047.047v12.879a.71.71,0,1,0,1.42,0V107.6H41.62a2.324,2.324,0,0,1,2.207,1.61H41.618a.71.71,0,0,0-.71.71v1.515a2.228,2.228,0,0,0,2.225,2.225h.8v3.125H42.081a4.5,4.5,0,0,0-8.5,0h-.342v-5.35a.71.71,0,0,0-1.42,0v5.35H17.082a4.5,4.5,0,0,0-8.5,0H4.5a.047.047,0,0,1-.047-.047v-1.562H7.528a.71.71,0,0,0,0-1.42H.71a.71.71,0,0,0,0,1.42H3.03v1.562A1.469,1.469,0,0,0,4.5,118.209H8.334c0,.016,0,.031,0,.047a4.5,4.5,0,0,0,9,0c0-.016,0-.032,0-.047H33.334c0,.016,0,.031,0,.047a4.5,4.5,0,0,0,9,0c0-.016,0-.032,0-.047h2.321a.71.71,0,0,0,.71-.71v-7.576A3.746,3.746,0,0,0,42.183,106.226Zm-8.946-7.713h5.35a1.564,1.564,0,0,1,1.562,1.562v.047H33.238Zm0,7.67v-4.64h6.311l1.16,4.64ZM12.831,121.334a3.078,3.078,0,1,1,3.078-3.078A3.081,3.081,0,0,1,12.831,121.334Zm25,0a3.078,3.078,0,1,1,3.078-3.078A3.081,3.081,0,0,1,37.83,121.334Zm6.108-9.091h-.8a.806.806,0,0,1-.8-.8v-.8h1.61v1.61Z" transform="translate(0 -94.062)" fill="#6e441e"/>
      </g>
    </g>
    <g id="Group_14" data-name="Group 14" transform="translate(11.363 22.727)">
      <g id="Group_13" data-name="Group 13">
        <path id="Path_53" data-name="Path 53" d="M129.735,350.6a1.468,1.468,0,1,0,1.468,1.468A1.469,1.469,0,0,0,129.735,350.6Z" transform="translate(-128.267 -350.597)" fill="#6e441e"/>
      </g>
    </g>
    <g id="Group_16" data-name="Group 16" transform="translate(36.363 22.727)">
      <g id="Group_15" data-name="Group 15">
        <path id="Path_54" data-name="Path 54" d="M411.923,350.6a1.468,1.468,0,1,0,1.468,1.468A1.469,1.469,0,0,0,411.923,350.6Z" transform="translate(-410.455 -350.597)" fill="#6e441e"/>
      </g>
    </g>
    <g id="Group_18" data-name="Group 18" transform="translate(18.181 19.697)">
      <g id="Group_17" data-name="Group 17">
        <path id="Path_55" data-name="Path 55" d="M216.543,316.393H205.937a.71.71,0,0,0,0,1.421h10.606a.71.71,0,1,0,0-1.421Z" transform="translate(-205.227 -316.393)" fill="#6e441e"/>
      </g>
    </g>
    <g id="Group_20" data-name="Group 20" transform="translate(1.515 16.666)">
      <g id="Group_19" data-name="Group 19">
        <path id="Path_56" data-name="Path 56" d="M26.9,282.188H17.812a.71.71,0,0,0,0,1.42H26.9a.71.71,0,1,0,0-1.42Z" transform="translate(-17.102 -282.188)" fill="#6e441e"/>
      </g>
    </g>
    <g id="Group_22" data-name="Group 22" transform="translate(12.878 6.818)">
      <g id="Group_21" data-name="Group 21">
        <path id="Path_57" data-name="Path 57" d="M157.188,171.231a.71.71,0,0,0-1,0l-6.316,6.316-3.286-3.286a.71.71,0,0,0-1,1l3.788,3.788a.71.71,0,0,0,1,0l6.818-6.818A.71.71,0,0,0,157.188,171.231Z" transform="translate(-145.37 -171.023)" fill="#6e441e"/>
      </g>
    </g>
  </g>
</svg>
