<svg xmlns="http://www.w3.org/2000/svg" width="17.956" height="17.956" viewBox="0 0 17.956 17.956">
  <path id="Path_242" data-name="Path 242" d="M16.752,4.471A8.94,8.94,0,0,0,13.485,1.2,8.782,8.782,0,0,0,8.978,0,8.782,8.782,0,0,0,4.472,1.2,8.938,8.938,0,0,0,1.2,4.471,8.782,8.782,0,0,0,0,8.978a8.784,8.784,0,0,0,1.2,4.507,8.94,8.94,0,0,0,3.267,3.267,8.783,8.783,0,0,0,4.507,1.2,8.783,8.783,0,0,0,4.507-1.2,8.938,8.938,0,0,0,3.267-3.267,8.784,8.784,0,0,0,1.2-4.507A8.784,8.784,0,0,0,16.752,4.471ZM8.978,1.309A7.39,7.39,0,0,1,14.04,3.226l-.146.2a5.071,5.071,0,0,1-.438.474,7.514,7.514,0,0,1-.766.666,10.256,10.256,0,0,1-1.128.719A10.852,10.852,0,0,1,10.042,6,33.34,33.34,0,0,0,7.166,1.531,7.734,7.734,0,0,1,8.978,1.309ZM2.97,4.22A7.565,7.565,0,0,1,5.705,2.046,40.244,40.244,0,0,1,8.557,6.465,27.734,27.734,0,0,1,1.473,7.4,7.579,7.579,0,0,1,2.97,4.22ZM1.824,11.743a7.522,7.522,0,0,1-.514-2.765,1.9,1.9,0,0,1,.012-.246A27.343,27.343,0,0,0,9.189,7.645q.374.725.62,1.3A.945.945,0,0,1,9.656,9L9.5,9.036l-.432.152a8.991,8.991,0,0,0-1.163.561q-.719.4-1.526.947a10.445,10.445,0,0,0-1.666,1.456A9.8,9.8,0,0,0,3.273,14.1,7.678,7.678,0,0,1,1.824,11.743Zm7.154,4.9a7.524,7.524,0,0,1-4.887-1.754l.175.129a6.257,6.257,0,0,1,1.2-1.73A10.163,10.163,0,0,1,7,11.953a15.091,15.091,0,0,1,1.6-.959q.865-.45,1.181-.573t.5-.193l.023-.012h.024a31.6,31.6,0,0,1,1.637,5.822A7.665,7.665,0,0,1,8.978,16.647Zm6.453-3.525a7.661,7.661,0,0,1-2.163,2.215,32.937,32.937,0,0,0-1.5-5.483,11.045,11.045,0,0,1,4.781.339A7.565,7.565,0,0,1,15.432,13.122Zm1.1-4.249q-.117-.023-.292-.053l-.427-.07q-.251-.041-.561-.076t-.661-.064q-.351-.029-.748-.047t-.807-.018q-.409,0-.859.023t-.871.082a1.385,1.385,0,0,1-.088-.193c-.035-.09-.061-.158-.076-.2q-.222-.491-.515-1.11a12,12,0,0,0,1.538-.754,11.948,11.948,0,0,0,1.169-.76,9.717,9.717,0,0,0,.83-.707,6.747,6.747,0,0,0,.509-.52q.117-.146.222-.286l.012-.012A7.5,7.5,0,0,1,16.647,8.9Z" transform="translate(0 0)" fill="#6e441e"/>
</svg>
