<svg xmlns="http://www.w3.org/2000/svg" width="21.719" height="17.647" viewBox="0 0 21.719 17.647">
  <path id="Path_246" data-name="Path 246" d="M21.719,50.089a9.284,9.284,0,0,1-2.566.7,4.428,4.428,0,0,0,1.959-2.461,8.9,8.9,0,0,1-2.824,1.078,4.452,4.452,0,0,0-7.7,3.045,4.585,4.585,0,0,0,.1,1.015,12.6,12.6,0,0,1-9.178-4.657,4.454,4.454,0,0,0,1.368,5.951,4.4,4.4,0,0,1-2.012-.548v.049a4.473,4.473,0,0,0,3.567,4.375,4.444,4.444,0,0,1-1.167.147,3.937,3.937,0,0,1-.843-.076,4.5,4.5,0,0,0,4.161,3.1,8.947,8.947,0,0,1-5.521,1.9A8.339,8.339,0,0,1,0,63.649a12.536,12.536,0,0,0,6.831,2A12.586,12.586,0,0,0,19.5,52.976c0-.2-.007-.387-.016-.576A8.883,8.883,0,0,0,21.719,50.089Z" transform="translate(0 -48)" fill="#6e441e"/>
</svg>
