<svg xmlns="http://www.w3.org/2000/svg" width="19.851" height="17.694" viewBox="0 0 19.851 17.694">
  <path id="heart_1_" data-name="heart (1)" d="M9.775,17.394a1.146,1.146,0,0,1-.756-.284C8.23,16.419,7.468,15.77,6.8,15.2l0,0a41.344,41.344,0,0,1-4.854-4.556A7.277,7.277,0,0,1,0,5.876,6.111,6.111,0,0,1,1.551,1.7,5.257,5.257,0,0,1,5.462,0,4.918,4.918,0,0,1,8.534,1.06a6.285,6.285,0,0,1,1.242,1.3,6.285,6.285,0,0,1,1.242-1.3A4.918,4.918,0,0,1,14.089,0,5.258,5.258,0,0,1,18,1.7a6.11,6.11,0,0,1,1.551,4.173,7.276,7.276,0,0,1-1.939,4.763,41.34,41.34,0,0,1-4.854,4.556c-.673.573-1.436,1.223-2.227,1.916a1.147,1.147,0,0,1-.756.284ZM5.462,1.145A4.125,4.125,0,0,0,2.393,2.479a4.971,4.971,0,0,0-1.248,3.4A6.123,6.123,0,0,0,2.821,9.908a40.685,40.685,0,0,0,4.715,4.415l0,0c.674.575,1.439,1.226,2.234,1.922.8-.7,1.566-1.35,2.242-1.925A40.7,40.7,0,0,0,16.73,9.908a6.123,6.123,0,0,0,1.676-4.033,4.971,4.971,0,0,0-1.248-3.4,4.124,4.124,0,0,0-3.069-1.333,3.8,3.8,0,0,0-2.371.821A5.557,5.557,0,0,0,10.4,3.5a.723.723,0,0,1-1.242,0A5.552,5.552,0,0,0,7.833,1.966a3.8,3.8,0,0,0-2.371-.821Zm0,0" transform="translate(0.15 0.15)" fill="#6e441e" stroke="#6e441e" stroke-width="0.3"/>
</svg>
