<svg xmlns="http://www.w3.org/2000/svg" width="18.221" height="18.225" viewBox="0 0 18.221 18.225">
  <g id="instagram_6_" data-name="instagram (6)" transform="translate(0)">
    <path id="Path_243" data-name="Path 243" d="M18.624,5.358A6.659,6.659,0,0,0,18.2,3.147,4.669,4.669,0,0,0,15.533.481,6.677,6.677,0,0,0,13.323.057C12.347.011,12.037,0,9.563,0S6.779.011,5.807.053A6.661,6.661,0,0,0,3.6.477,4.447,4.447,0,0,0,1.979,1.531,4.487,4.487,0,0,0,.929,3.144,6.677,6.677,0,0,0,.506,5.355C.459,6.33.449,6.64.449,9.114S.459,11.9.5,12.87a6.659,6.659,0,0,0,.424,2.211,4.668,4.668,0,0,0,2.667,2.667,6.677,6.677,0,0,0,2.211.424c.972.043,1.282.053,3.756.053s2.784-.011,3.756-.053a6.658,6.658,0,0,0,2.211-.424,4.662,4.662,0,0,0,2.667-2.667,6.682,6.682,0,0,0,.424-2.211c.043-.972.053-1.282.053-3.756s0-2.784-.046-3.756ZM16.983,12.8a5,5,0,0,1-.313,1.691,3.023,3.023,0,0,1-1.73,1.73,5.013,5.013,0,0,1-1.691.313c-.961.043-1.25.053-3.681.053s-2.724-.011-3.681-.053a4.993,4.993,0,0,1-1.691-.313,2.8,2.8,0,0,1-1.047-.68,2.833,2.833,0,0,1-.68-1.047A5.014,5.014,0,0,1,2.154,12.8c-.043-.961-.053-1.25-.053-3.681S2.111,6.4,2.154,5.44a4.993,4.993,0,0,1,.313-1.691A2.77,2.77,0,0,1,3.151,2.7,2.829,2.829,0,0,1,4.2,2.022a5.016,5.016,0,0,1,1.691-.313c.961-.043,1.25-.053,3.681-.053s2.724.011,3.681.053a5,5,0,0,1,1.691.313,2.8,2.8,0,0,1,1.047.68,2.833,2.833,0,0,1,.68,1.047,5.016,5.016,0,0,1,.313,1.691c.043.961.053,1.25.053,3.681s-.011,2.717-.053,3.678Zm0,0" transform="translate(-0.448 0)" fill="#6e441e"/>
    <path id="Path_244" data-name="Path 244" d="M129.631,124.5a4.682,4.682,0,1,0,4.682,4.682A4.683,4.683,0,0,0,129.631,124.5Zm0,7.719a3.037,3.037,0,1,1,3.037-3.037A3.037,3.037,0,0,1,129.631,132.219Zm0,0" transform="translate(-120.516 -120.067)" fill="#6e441e"/>
    <path id="Path_245" data-name="Path 245" d="M364.636,89.695a1.093,1.093,0,1,1-1.093-1.093A1.093,1.093,0,0,1,364.636,89.695Zm0,0" transform="translate(-349.561 -85.447)" fill="#6e441e"/>
  </g>
</svg>
