<svg id="location" xmlns="http://www.w3.org/2000/svg" width="53.81" height="75.591" viewBox="0 0 53.81 75.591">
  <path id="Path_22606" data-name="Path 22606" d="M159.842,0c-7.771,0-16.656,12.07-16.656,26.905,0,19.168,15.6,47.082,16.157,48.262.127.27.309.424.5.424a1.28,1.28,0,0,0,.953-.424c1.06-1.18,25.952-29.094,25.952-48.262A26.936,26.936,0,0,0,159.842,0Zm0,41a14.093,14.093,0,1,1,14.093-14.093A14.093,14.093,0,0,1,159.842,41Z" transform="translate(-132.937)" fill="#a16937"/>
  <path id="Path_22607" data-name="Path 22607" d="M100.169,75.167c-.555-1.18-16.157-29.094-16.157-48.262C84.012,12.07,92.9,0,100.668,0A26.936,26.936,0,0,0,73.763,26.905c0,19.168,24.893,47.082,25.952,48.262a1.28,1.28,0,0,0,.953.424C100.478,75.591,100.3,75.437,100.169,75.167Z" transform="translate(-73.763 0)" fill="#6e441e"/>
</svg>
