<svg id="mail" xmlns="http://www.w3.org/2000/svg" width="46.541" height="32.724" viewBox="0 0 46.541 32.724">
  <g id="Group_63" data-name="Group 63" transform="translate(32.016 2.338)">
    <g id="Group_62" data-name="Group 62">
      <path id="Path_42" data-name="Path 42" d="M366.326,101.721l-14.115,14.024,14.115,14.024a4.043,4.043,0,0,0,.41-1.752V103.473A4.043,4.043,0,0,0,366.326,101.721Z" transform="translate(-352.211 -101.721)" fill="#6e441e"/>
    </g>
  </g>
  <g id="Group_65" data-name="Group 65" transform="translate(2.338 0)">
    <g id="Group_64" data-name="Group 64">
      <path id="Path_43" data-name="Path 43" d="M65.834,76H27.473a4.043,4.043,0,0,0-1.752.41L43.762,94.36a4.094,4.094,0,0,0,5.784,0L67.586,76.41A4.043,4.043,0,0,0,65.834,76Z" transform="translate(-25.721 -76)" fill="#6e441e"/>
    </g>
  </g>
  <g id="Group_67" data-name="Group 67" transform="translate(0 2.338)">
    <g id="Group_66" data-name="Group 66">
      <path id="Path_44" data-name="Path 44" d="M.41,101.721A4.043,4.043,0,0,0,0,103.473v24.543a4.043,4.043,0,0,0,.41,1.752l14.115-14.024Z" transform="translate(0 -101.721)" fill="#6e441e"/>
    </g>
  </g>
  <g id="Group_69" data-name="Group 69" transform="translate(2.338 18.29)">
    <g id="Group_68" data-name="Group 68">
      <path id="Path_45" data-name="Path 45" d="M53.471,277.211l-2,2a6.825,6.825,0,0,1-9.641,0l-2-2L25.721,291.235a4.043,4.043,0,0,0,1.752.41h38.36a4.042,4.042,0,0,0,1.752-.41Z" transform="translate(-25.721 -277.211)" fill="#6e441e"/>
    </g>
  </g>
</svg>
