<svg xmlns="http://www.w3.org/2000/svg" width="65.707" height="78.37" viewBox="0 0 65.707 78.37">
  <g id="Group_1388" data-name="Group 1388" transform="translate(-1433.937 -1588.736)">
    <g id="money_back" data-name="money back" transform="translate(1433.938 1588.736)">
      <g id="Group_1371" data-name="Group 1371" transform="translate(0 0)">
        <g id="Group_1370" data-name="Group 1370">
          <path id="Path_22582" data-name="Path 22582" d="M97.315,362.427H88.083a4.043,4.043,0,0,0-3.646-5.792H79.672a9.239,9.239,0,0,1-3.345-.624l-3.646-1.41a11.524,11.524,0,0,0-4.173-.779H61.2v-.263a2.682,2.682,0,0,0-2.679-2.679H43.277a1.915,1.915,0,0,0-1.913,1.913v4.5a1.148,1.148,0,0,0,2.3,0v-4.12H58.523a.383.383,0,0,1,.383.383v19.3a.383.383,0,0,1-.383.383H43.66V363.212a1.148,1.148,0,1,0-2.3,0V373.63a1.915,1.915,0,0,0,1.913,1.913H58.523a2.682,2.682,0,0,0,2.679-2.679v-1.977H97.315a4.23,4.23,0,0,0,0-8.46Zm0,6.164H61.2V356.118h7.306a9.238,9.238,0,0,1,3.345.624l3.646,1.41a11.525,11.525,0,0,0,4.173.779h4.766a1.748,1.748,0,1,1,0,3.5h-6.71a1.148,1.148,0,0,0,0,2.3H97.315a1.934,1.934,0,1,1,0,3.867Z" transform="translate(-41.364 -297.173)" fill="#c18f61"/>
          <path id="Path_22583" data-name="Path 22583" d="M276.432,118.882a1.489,1.489,0,0,1,1.487,1.487,1.148,1.148,0,1,0,2.3,0,3.789,3.789,0,0,0-2.635-3.6v-1.394a1.148,1.148,0,1,0-2.3,0v1.394a3.783,3.783,0,0,0,1.148,7.387c.028,0,.056,0,.084,0a1.487,1.487,0,1,1-1.571,1.485,1.148,1.148,0,0,0-2.3,0,3.789,3.789,0,0,0,2.635,3.6v1.394a1.148,1.148,0,1,0,2.3,0v-1.394a3.783,3.783,0,0,0-1.148-7.387c-.028,0-.056,0-.084,0a1.487,1.487,0,0,1,.084-2.972Z" transform="translate(-237.247 -96.739)" fill="#c18f61"/>
          <path id="Path_22584" data-name="Path 22584" d="M233.368,91.383a1.148,1.148,0,0,0-.46-1.557,12.753,12.753,0,1,0,4.318,3.835,1.148,1.148,0,0,0-1.872,1.329,10.439,10.439,0,1,1-3.543-3.147,1.147,1.147,0,0,0,1.557-.46Z" transform="translate(-187.638 -74.769)" fill="#c18f61"/>
          <path id="Path_22585" data-name="Path 22585" d="M140.658,17.08a1.147,1.147,0,0,0,1.519-.574,24.157,24.157,0,0,1,22-14.21h.161a23.915,23.915,0,0,1,14.933,5.268,1.148,1.148,0,1,0,1.435-1.793A26.191,26.191,0,0,0,164.355,0h-.176a26.457,26.457,0,0,0-24.095,15.562,1.148,1.148,0,0,0,.574,1.519Z" transform="translate(-124.887 0)" fill="#c18f61"/>
          <path id="Path_22586" data-name="Path 22586" d="M132.977,75.949a4.186,4.186,0,0,0,3.547-6.4,18.049,18.049,0,1,1,16.486,8.5V76.984a1.76,1.76,0,0,0-2.891-1.349l-6.156,5.16a1.913,1.913,0,0,0,0,2.932l6.156,5.16a1.748,1.748,0,0,0,1.127.414,1.766,1.766,0,0,0,.749-.168,1.743,1.743,0,0,0,1.016-1.595V86.423a26.456,26.456,0,0,0,19.355-43.1,1.148,1.148,0,1,0-1.78,1.45,24.159,24.159,0,0,1-18.156,39.376,1.767,1.767,0,0,0-1.715,1.758v.489l-4.926-4.13,4.926-4.13V78.6a1.759,1.759,0,0,0,1.817,1.758,20.339,20.339,0,1,0-17.957-9.605,1.889,1.889,0,1,1-3.2,2.01,24.195,24.195,0,0,1-3.141-17.62,1.148,1.148,0,0,0-2.249-.462,26.492,26.492,0,0,0,3.441,19.3,4.157,4.157,0,0,0,3.551,1.968Z" transform="translate(-112.574 -33.61)" fill="#c18f61"/>
        </g>
      </g>
    </g>
  </g>
</svg>
