<svg xmlns="http://www.w3.org/2000/svg" width="11.23" height="13.46" viewBox="0 0 11.23 13.46">
  <g id="person" transform="translate(0)">
    <path id="Path_22598" data-name="Path 22598" d="M90.274,6.484a3.137,3.137,0,0,0,2.292-.95,3.137,3.137,0,0,0,.95-2.292A3.137,3.137,0,0,0,92.566.95a3.241,3.241,0,0,0-4.584,0,3.137,3.137,0,0,0-.95,2.292,3.137,3.137,0,0,0,.95,2.292A3.138,3.138,0,0,0,90.274,6.484Zm0,0" transform="translate(-84.744 0)" fill="#6e441e"/>
    <path id="Path_22599" data-name="Path 22599" d="M11.2,251.165a8.005,8.005,0,0,0-.109-.85,6.7,6.7,0,0,0-.209-.855,4.224,4.224,0,0,0-.352-.8,3.009,3.009,0,0,0-.53-.691,2.337,2.337,0,0,0-.761-.478,2.632,2.632,0,0,0-.972-.176.987.987,0,0,0-.527.223c-.158.1-.343.222-.549.354a3.147,3.147,0,0,1-.71.313,2.758,2.758,0,0,1-1.737,0,3.138,3.138,0,0,1-.71-.313c-.2-.13-.389-.25-.549-.354a.985.985,0,0,0-.527-.223,2.628,2.628,0,0,0-.972.176,2.335,2.335,0,0,0-.762.478,3.009,3.009,0,0,0-.53.691,4.231,4.231,0,0,0-.352.8,6.716,6.716,0,0,0-.209.855,7.977,7.977,0,0,0-.109.851c-.018.258-.027.525-.027.795a2.235,2.235,0,0,0,.664,1.691,2.389,2.389,0,0,0,1.711.624H8.855a2.389,2.389,0,0,0,1.71-.624,2.234,2.234,0,0,0,.664-1.691c0-.271-.009-.539-.027-.8Zm0,0" transform="translate(0 -240.815)" fill="#6e441e"/>
  </g>
</svg>
