<svg id="Group_1427" data-name="Group 1427" xmlns="http://www.w3.org/2000/svg" width="45" height="45" viewBox="0 0 45 45">
  <g id="Group_1426" data-name="Group 1426">
    <g id="Group_1425" data-name="Group 1425">
      <path id="Path_22616" data-name="Path 22616" d="M41.389,29.537a25.549,25.549,0,0,1-8.024-1.278,3.667,3.667,0,0,0-3.567.752l-5.06,3.82a27.962,27.962,0,0,1-12.572-12.57l3.707-4.928a3.637,3.637,0,0,0,.895-3.685,25.588,25.588,0,0,1-1.283-8.037A3.615,3.615,0,0,0,11.875,0H3.611A3.615,3.615,0,0,0,0,3.611,41.436,41.436,0,0,0,41.389,45,3.615,3.615,0,0,0,45,41.389V33.148A3.615,3.615,0,0,0,41.389,29.537Z" fill="#6e441e"/>
    </g>
  </g>
</svg>
