<svg xmlns="http://www.w3.org/2000/svg" width="60.817" height="52.54" viewBox="0 0 60.817 52.54">
  <g id="quotes" transform="translate(0 -34.571)">
    <g id="Group_1141" data-name="Group 1141" transform="translate(0 34.571)">
      <g id="Group_1140" data-name="Group 1140" transform="translate(0 0)">
        <path id="Path_1138" data-name="Path 1138" d="M.013,72.633A14.516,14.516,0,1,0,9.8,58.948C13.059,40.263,27.63,28.213,14.123,38.13-.854,49.127,0,72.191.014,72.614.014,72.62.013,72.626.013,72.633Z" transform="translate(0 -34.571)" fill="#6e441e"/>
        <path id="Path_1139" data-name="Path 1139" d="M266.074,72.633a14.516,14.516,0,1,0,9.788-13.686c3.258-18.685,17.829-30.735,4.322-20.818-14.977,11-14.126,34.061-14.109,34.484C266.074,72.62,266.074,72.626,266.074,72.633Z" transform="translate(-234.211 -34.571)" fill="#6e441e"/>
      </g>
    </g>
  </g>
</svg>
