<svg xmlns="http://www.w3.org/2000/svg" width="45.359" height="44.207" viewBox="0 0 45.359 44.207">
  <g id="return" transform="translate(0 0)">
    <g id="Group_24" data-name="Group 24" transform="translate(0)">
      <g id="Group_23" data-name="Group 23">
        <path id="Path_58" data-name="Path 58" d="M52.249,281.735h.708a.886.886,0,0,0,0-1.772h-.708a.886.886,0,0,0,0,1.772Z" transform="translate(-46.813 -255.737)" fill="#6e441e"/>
        <path id="Path_59" data-name="Path 59" d="M105.641,281.735a.886.886,0,0,0,0-1.772h-5.374a.886.886,0,1,0,0,1.772Z" transform="translate(-90.577 -255.737)" fill="#6e441e"/>
        <path id="Path_60" data-name="Path 60" d="M52.249,329.2h9.628a.886.886,0,0,0,0-1.772H52.249a.886.886,0,1,0,0,1.772Z" transform="translate(-46.813 -298.998)" fill="#6e441e"/>
        <path id="Path_61" data-name="Path 61" d="M34.792,24.24V9.382A2.887,2.887,0,0,0,31.907,6.5H2.882A2.885,2.885,0,0,0,0,9.382V19.913a.886.886,0,1,0,1.772,0V9.382a1.111,1.111,0,0,1,1.11-1.11H11.1V19.763a.886.886,0,0,0,1.351.754l4.944-3.047,4.944,3.047a.894.894,0,0,0,1.351-.754V8.272h8.217a1.113,1.113,0,0,1,1.113,1.11v14.6q-.519-.04-1.048-.041a13.384,13.384,0,0,0-13.207,15.57H2.882A1.113,1.113,0,0,1,1.772,38.4V27.867a.886.886,0,0,0-1.772,0V38.4a2.887,2.887,0,0,0,2.882,2.884h16.3A13.387,13.387,0,1,0,34.792,24.24ZM21.918,18.176l-4.058-2.5a.886.886,0,0,0-.93,0l-4.058,2.5v-9.9h9.046ZM31.972,48.935A11.611,11.611,0,1,1,43.587,37.324,11.626,11.626,0,0,1,31.972,48.935Z" transform="translate(0 -6.5)" fill="#6e441e"/>
        <path id="Path_62" data-name="Path 62" d="M287.719,264.719h-3.384l1.579-1.578a.886.886,0,0,0-1.252-1.254l-3.094,3.09a.9.9,0,0,0,0,1.254l3.094,3.091a.886.886,0,0,0,1.252-1.254l-1.579-1.578h3.384a3.888,3.888,0,1,1,0,7.776h-7.993a.886.886,0,0,0,0,1.772h7.993a5.66,5.66,0,1,0,0-11.319Z" transform="translate(-254.137 -239.026)" fill="#6e441e"/>
        <path id="Path_63" data-name="Path 63" d="M.886,194.569A.887.887,0,1,0,0,193.681v.005A.884.884,0,0,0,.886,194.569Z" transform="translate(0 -176.291)" fill="#6e441e"/>
      </g>
    </g>
  </g>
</svg>
