<svg id="support1" xmlns="http://www.w3.org/2000/svg" width="65.785" height="65.937" viewBox="0 0 65.785 65.937">
  <g id="Group_1373" data-name="Group 1373" transform="translate(0.001 10.635)">
    <g id="Group_1372" data-name="Group 1372">
      <path id="Path_22587" data-name="Path 22587" d="M54.013,126.794l-2.462-7.387a7.445,7.445,0,0,0-5.731-4.97l-7.107-1.293v-.551a10.7,10.7,0,0,0,3.17-2.815H44.03a3.194,3.194,0,0,0,3.19-3.19V93.825a13.825,13.825,0,0,0-27.651,0v7.444a4.261,4.261,0,0,0,3.391,4.166,10.655,10.655,0,0,0,5.116,7.157v.551l-7.108,1.293a7.443,7.443,0,0,0-5.73,4.97l-.425,1.277-3.622-3.622a1.066,1.066,0,0,1,0-1.5l4.2-4.2-7.885-7.885L2.76,108.22a7.444,7.444,0,0,0,0,10.528l14.373,14.373a7.441,7.441,0,0,0,10.495.032l5.18-4.746-1.615-1.612Zm-8.92-20.206a1.065,1.065,0,0,1-1.063,1.063h-.894a10.563,10.563,0,0,0,.693-2.215,4.213,4.213,0,0,0,1.264-.5ZM44.03,103.1V99.439a2.109,2.109,0,0,1,0,3.663Zm-21.27,0a2.109,2.109,0,0,1,0-3.663Zm0-7.149v1.215a4.218,4.218,0,0,0-1.063.44V93.825a11.7,11.7,0,1,1,23.4,0v3.782a4.179,4.179,0,0,0-1.063-.44V95.952H42.967A11.7,11.7,0,0,1,34.641,92.5L33.4,91.258,32.15,92.5a11.7,11.7,0,0,1-8.326,3.449Zm2.127,7.444V98.039a13.788,13.788,0,0,0,8.508-3.78,13.782,13.782,0,0,0,8.508,3.78V103.4a8.444,8.444,0,0,1-1.151,4.254H33.4v2.127H39A8.494,8.494,0,0,1,24.887,103.4Zm11.7,10.145v.05l-3.19,3.19-3.19-3.19v-.05a10.626,10.626,0,0,0,6.381,0Zm-19.33,6.537a5.319,5.319,0,0,1,4.093-3.551l7.434-1.351L33.4,119.79l4.611-4.611,7.433,1.351a5.317,5.317,0,0,1,4.093,3.551l1.53,4.587h-22l-4.142-4.142-4.6,4.164a1.086,1.086,0,0,1-1.5,0l-2.323-2.323Zm-9.749-13.6,4.877,4.877-1.155,1.155-4.877-4.877Zm18.648,25.139a5.319,5.319,0,0,1-7.52,0L4.262,117.245a5.319,5.319,0,0,1,0-7.52l.585-.585,4.877,4.877-.038.038a3.2,3.2,0,0,0,0,4.512l7.626,7.626a3.174,3.174,0,0,0,2.257.935,3.131,3.131,0,0,0,2.217-.9l.08-.071,4.9,4.9Zm2.18-2-4.889-4.889,1.4-1.27,4.88,4.88Z" transform="translate(-0.58 -80)" fill="#c18f61"/>
    </g>
  </g>
  <g id="Group_1375" data-name="Group 1375" transform="translate(44.515)">
    <g id="Group_1374" data-name="Group 1374">
      <path id="Path_22588" data-name="Path 22588" d="M353.507,0H338.619a3.194,3.194,0,0,0-3.19,3.19V11.7a3.194,3.194,0,0,0,3.19,3.19h2.841l-1.1,6.414,10.263-6.414h2.885a3.194,3.194,0,0,0,3.19-3.19V3.19A3.194,3.194,0,0,0,353.507,0Zm1.063,11.7a1.065,1.065,0,0,1-1.063,1.063h-3.5l-6.754,4.221.724-4.221h-5.363a1.065,1.065,0,0,1-1.064-1.063V3.19a1.065,1.065,0,0,1,1.064-1.063h14.889a1.065,1.065,0,0,1,1.063,1.063Z" transform="translate(-335.428)" fill="#c18f61"/>
    </g>
  </g>
  <g id="Group_1377" data-name="Group 1377" transform="translate(48.769 4.254)">
    <g id="Group_1376" data-name="Group 1376">
      <rect id="Rectangle_84" data-name="Rectangle 84" width="12.762" height="2.127" fill="#c18f61"/>
    </g>
  </g>
  <g id="Group_1379" data-name="Group 1379" transform="translate(48.769 8.508)">
    <g id="Group_1378" data-name="Group 1378">
      <rect id="Rectangle_85" data-name="Rectangle 85" width="8.508" height="2.127" fill="#c18f61"/>
    </g>
  </g>
  <g id="Group_1381" data-name="Group 1381" transform="translate(59.404 8.508)">
    <g id="Group_1380" data-name="Group 1380">
      <rect id="Rectangle_86" data-name="Rectangle 86" width="2.127" height="2.127" fill="#c18f61"/>
    </g>
  </g>
  <g id="Group_1383" data-name="Group 1383" transform="translate(0 3.19)">
    <g id="Group_1382" data-name="Group 1382">
      <path id="Path_22589" data-name="Path 22589" d="M33.388,24A29.759,29.759,0,0,0,4.411,47.019L2.4,43.66.572,44.754,4.31,50.983l6.229-3.738L9.445,45.421,6.563,47.15a27.658,27.658,0,0,1,35.019-19.79l.63-2.031A29.759,29.759,0,0,0,33.388,24Z" transform="translate(-0.572 -24)" fill="#c18f61"/>
    </g>
  </g>
  <g id="Group_1385" data-name="Group 1385" transform="translate(54.3 19.81)">
    <g id="Group_1384" data-name="Group 1384">
      <path id="Path_22590" data-name="Path 22590" d="M420,152.754l-6.229-3.738-3.737,6.23,1.824,1.094,1.861-3.1a27.674,27.674,0,0,1-4.687,26.346l1.652,1.34a29.782,29.782,0,0,0,5.1-28.221l3.126,1.875Z" transform="translate(-409.036 -149.016)" fill="#c18f61"/>
    </g>
  </g>
</svg>
