<svg xmlns="http://www.w3.org/2000/svg" width="43.84" height="43.941" viewBox="0 0 43.84 43.941">
  <g id="support" transform="translate(0)">
    <g id="Group_26" data-name="Group 26" transform="translate(0.001 7.087)">
      <g id="Group_25" data-name="Group 25">
        <path id="Path_64" data-name="Path 64" d="M36.189,111.184l-1.641-4.923a4.961,4.961,0,0,0-3.819-3.312l-4.736-.862v-.367A7.133,7.133,0,0,0,28.1,99.844h1.431a2.129,2.129,0,0,0,2.126-2.126v-8.5a9.213,9.213,0,0,0-18.427,0v4.961a2.84,2.84,0,0,0,2.26,2.776,7.1,7.1,0,0,0,3.41,4.77v.367l-4.737.862a4.96,4.96,0,0,0-3.819,3.312l-.283.851L7.652,104.7a.71.71,0,0,1,0-1l2.8-2.8L5.2,95.642,2.033,98.806a4.961,4.961,0,0,0,0,7.016l9.578,9.578a4.959,4.959,0,0,0,6.994.021l3.452-3.163-1.077-1.074ZM30.245,97.718a.709.709,0,0,1-.709.709h-.6a7.04,7.04,0,0,0,.462-1.476,2.808,2.808,0,0,0,.843-.335ZM29.536,95.4V92.954a1.405,1.405,0,0,1,0,2.441Zm-14.175,0a1.405,1.405,0,0,1,0-2.441Zm0-4.764v.809a2.811,2.811,0,0,0-.709.293v-2.52a7.8,7.8,0,1,1,15.592,0v2.52a2.785,2.785,0,0,0-.709-.293v-.809h-.709a7.8,7.8,0,0,1-5.549-2.3l-.83-.83-.83.83a7.8,7.8,0,0,1-5.549,2.3Zm1.417,4.961V92.021a9.189,9.189,0,0,0,5.67-2.519,9.185,9.185,0,0,0,5.67,2.519v3.571a5.627,5.627,0,0,1-.767,2.835h-4.9v1.417h3.738a5.661,5.661,0,0,1-9.408-4.252Zm7.8,6.761v.033l-2.126,2.126-2.126-2.126v-.033a7.081,7.081,0,0,0,4.252,0Zm-12.882,4.357a3.545,3.545,0,0,1,2.728-2.366l4.954-.9,3.074,3.074,3.073-3.073,4.953.9A3.544,3.544,0,0,1,33.2,106.71l1.02,3.057H19.563l-2.76-2.761-3.067,2.775a.724.724,0,0,1-1,0l-1.548-1.548ZM5.2,97.647l3.25,3.25-.77.77-3.25-3.25ZM17.624,114.4a3.544,3.544,0,0,1-5.011,0L3.034,104.82a3.544,3.544,0,0,1,0-5.011l.39-.39,3.25,3.25-.026.026a2.13,2.13,0,0,0,0,3.007l5.082,5.082a2.115,2.115,0,0,0,1.5.623,2.087,2.087,0,0,0,1.478-.6l.053-.048,3.265,3.265Zm1.453-1.332-3.258-3.258.936-.846,3.252,3.252Z" transform="translate(-0.58 -80)" fill="#6e441e"/>
      </g>
    </g>
    <g id="Group_28" data-name="Group 28" transform="translate(29.665)">
      <g id="Group_27" data-name="Group 27">
        <path id="Path_65" data-name="Path 65" d="M347.476,0h-9.922a2.129,2.129,0,0,0-2.126,2.126V7.8a2.129,2.129,0,0,0,2.126,2.126h1.893l-.733,4.274,6.839-4.274h1.923A2.129,2.129,0,0,0,349.6,7.8V2.126A2.129,2.129,0,0,0,347.476,0Zm.709,7.8a.71.71,0,0,1-.709.709h-2.33l-4.5,2.813.483-2.813h-3.574a.71.71,0,0,1-.709-.709V2.126a.71.71,0,0,1,.709-.709h9.922a.71.71,0,0,1,.709.709Z" transform="translate(-335.428)" fill="#6e441e"/>
      </g>
    </g>
    <g id="Group_30" data-name="Group 30" transform="translate(32.5 2.835)">
      <g id="Group_29" data-name="Group 29">
        <rect id="Rectangle_6" data-name="Rectangle 6" width="8.505" height="1.417" fill="#6e441e"/>
      </g>
    </g>
    <g id="Group_32" data-name="Group 32" transform="translate(32.5 5.67)">
      <g id="Group_31" data-name="Group 31">
        <rect id="Rectangle_7" data-name="Rectangle 7" width="5.67" height="1.417" fill="#6e441e"/>
      </g>
    </g>
    <g id="Group_34" data-name="Group 34" transform="translate(39.588 5.67)">
      <g id="Group_33" data-name="Group 33">
        <rect id="Rectangle_8" data-name="Rectangle 8" width="1.417" height="1.417" fill="#6e441e"/>
      </g>
    </g>
    <g id="Group_36" data-name="Group 36" transform="translate(0 2.126)">
      <g id="Group_35" data-name="Group 35">
        <path id="Path_66" data-name="Path 66" d="M22.441,24A19.832,19.832,0,0,0,3.131,39.34L1.787,37.1l-1.215.729,2.491,4.151,4.151-2.491-.729-1.215L4.564,39.428A18.432,18.432,0,0,1,27.9,26.24l.42-1.354A19.832,19.832,0,0,0,22.441,24Z" transform="translate(-0.572 -24)" fill="#6e441e"/>
      </g>
    </g>
    <g id="Group_38" data-name="Group 38" transform="translate(36.186 13.202)">
      <g id="Group_37" data-name="Group 37">
        <path id="Path_67" data-name="Path 67" d="M416.345,151.507l-4.151-2.491-2.49,4.152,1.215.729,1.24-2.067a18.443,18.443,0,0,1-3.123,17.557l1.1.893a19.847,19.847,0,0,0,3.4-18.807l2.083,1.249Z" transform="translate(-409.036 -149.016)" fill="#6e441e"/>
      </g>
    </g>
  </g>
</svg>
