<svg xmlns="http://www.w3.org/2000/svg" width="34.141" height="34.141" viewBox="0 0 34.141 34.141">
  <g id="twi" transform="translate(0)">
    <g id="Group_1397" data-name="Group 1397" transform="translate(0 0)">
      <ellipse id="Ellipse_24" data-name="Ellipse 24" cx="17.071" cy="17.071" rx="17.071" ry="17.071" fill="#55acee"/>
      <g id="Group_1396" data-name="Group 1396" transform="translate(7.639 10.355)">
        <path id="Path_22593" data-name="Path 22593" d="M44.991,35.941a8.141,8.141,0,0,1-2.344.642,4.091,4.091,0,0,0,1.794-2.257,8.168,8.168,0,0,1-2.591.99A4.084,4.084,0,0,0,34.9,39.038a11.583,11.583,0,0,1-8.411-4.264,4.085,4.085,0,0,0,1.263,5.448,4.052,4.052,0,0,1-1.848-.511c0,.017,0,.035,0,.052a4.083,4.083,0,0,0,3.273,4,4.1,4.1,0,0,1-1.843.071,4.085,4.085,0,0,0,3.812,2.834A8.237,8.237,0,0,1,25.1,48.358a11.6,11.6,0,0,0,17.864-9.777c0-.177,0-.353-.012-.528a8.275,8.275,0,0,0,2.036-2.112Z" transform="translate(-25.103 -34.028)" fill="#f1f2f2"/>
      </g>
    </g>
  </g>
</svg>
